<?xml version="1.0" encoding="UTF-8" standalone="no"?>
<!-- Created with Inkscape (http://www.inkscape.org/) -->

<svg
   width="36.882561mm"
   height="6.1202259mm"
   viewBox="0 0 36.882561 6.1202259"
   version="1.1"
   id="svg1"
   xml:space="preserve"
   xmlns="http://www.w3.org/2000/svg"
   xmlns:svg="http://www.w3.org/2000/svg"><defs
     id="defs1" /><g
     id="layer1"
     transform="translate(-90.979845,-91.783941)"><path
       style="font-weight:bold;font-size:6.35px;font-family:Rubik;-inkscape-font-specification:'Rubik Bold';fill:#ffd097;fill-opacity:0.996616;stroke-width:0.264583"
       d="m 100.73556,92.25267 q 0.0698,0 0.12065,0.0508 0.0508,0.0508 0.0508,0.12065 v 0.6731 q 0,0.06985 -0.0508,0.12065 -0.0508,0.0508 -0.12065,0.0508 h -1.117603 v 3.25755 q 0,0.06985 -0.0508,0.12065 -0.0508,0.0508 -0.12065,0.0508 h -0.83185 q -0.06985,0 -0.12065,-0.0508 -0.0508,-0.0508 -0.0508,-0.12065 v -3.25755 h -1.1176 q -0.06985,0 -0.12065,-0.0508 -0.0508,-0.0508 -0.0508,-0.12065 v -0.6731 q 0,-0.06985 0.0508,-0.12065 0.0508,-0.0508 0.12065,-0.0508 z m 1.80975,0.6223 q 0,0.06985 -0.0508,0.12065 -0.0508,0.0508 -0.12065,0.0508 h -0.8001 q -0.0698,0 -0.12065,-0.0508 -0.0508,-0.0508 -0.0508,-0.12065 v -0.64135 q 0,-0.06985 0.0508,-0.12065 0.0508,-0.0508 0.12065,-0.0508 h 0.8001 q 0.0699,0 0.12065,0.0508 0.0508,0.0508 0.0508,0.12065 z m 0,3.65125 q 0,0.06985 -0.0508,0.12065 -0.0508,0.0508 -0.12065,0.0508 h -0.8001 q -0.0698,0 -0.12065,-0.0508 -0.0508,-0.0508 -0.0508,-0.12065 v -2.9591 q 0,-0.06985 0.0508,-0.12065 0.0508,-0.0508 0.12065,-0.0508 h 0.8001 q 0.0699,0 0.12065,0.0508 0.0508,0.0508 0.0508,0.12065 z m 5.9436,0 q 0,0.06985 -0.0508,0.12065 -0.0508,0.0508 -0.12065,0.0508 h -0.76835 q -0.0699,0 -0.12065,-0.0508 -0.0508,-0.0508 -0.0508,-0.12065 v -1.6256 q 0,-0.3048 -0.1143,-0.4445 -0.1143,-0.1397 -0.34925,-0.1397 -0.2286,0 -0.3429,0.1397 -0.1143,0.1397 -0.1143,0.4445 v 1.6256 q 0,0.06985 -0.0508,0.12065 -0.0508,0.0508 -0.12065,0.0508 h -0.76835 q -0.0699,0 -0.12065,-0.0508 -0.0508,-0.0508 -0.0508,-0.12065 v -1.6256 q 0,-0.3048 -0.1143,-0.4445 -0.1143,-0.1397 -0.34925,-0.1397 -0.4572,0 -0.4572,0.56515 v 1.64465 q 0,0.06985 -0.0508,0.12065 -0.0508,0.0508 -0.12065,0.0508 h -0.8001 q -0.0699,0 -0.12065,-0.0508 -0.0508,-0.0508 -0.0508,-0.12065 v -2.9591 q 0,-0.06985 0.0508,-0.12065 0.0508,-0.0508 0.12065,-0.0508 h 0.76835 q 0.0699,0 0.12065,0.0508 0.0508,0.0508 0.0508,0.12065 v 0.14605 q 0.29845,-0.381 0.80645,-0.381 0.3302,0 0.59055,0.127 0.26035,0.12065 0.42545,0.3683 0.18415,-0.2413 0.4445,-0.3683 0.2667,-0.127 0.5715,-0.127 0.57785,0 0.9144,0.36195 0.3429,0.36195 0.3429,1.08585 z m 1.69545,-1.1176 q 0,0.2667 0.17145,0.381 0.17145,0.1143 0.40005,0.1143 0.1778,0 0.2921,-0.0381 0.1143,-0.0381 0.19685,-0.10795 0.0699,-0.05715 0.1016,-0.06985 0.0317,-0.01905 0.10795,-0.01905 h 0.8255 q 0.0635,0 0.1016,0.0381 0.0381,0.0381 0.0381,0.1016 0,0.127 -0.1905,0.36195 -0.1905,0.2286 -0.56515,0.41275 -0.37465,0.1778 -0.90805,0.1778 -0.81915,0 -1.27,-0.45085 -0.4445,-0.4572 -0.4445,-1.26365 0,-0.50165 0.19685,-0.889 0.2032,-0.38735 0.59055,-0.60325 0.38735,-0.22225 0.9271,-0.22225 0.59055,0 0.97155,0.254 0.38735,0.24765 0.56515,0.6477 0.1778,0.3937 0.1778,0.8255 v 0.1778 q 0,0.06985 -0.0508,0.12065 -0.0508,0.0508 -0.12065,0.0508 z m 1.143,-0.70485 q -0.0254,-0.2159 -0.1778,-0.36195 -0.14605,-0.1524 -0.3937,-0.1524 -0.24765,0 -0.40005,0.1524 -0.14605,0.14605 -0.17145,0.36195 z m 3.5052,-1.20015 q 0.10795,-0.10795 0.24765,-0.10795 h 0.93345 q 0.0635,0 0.10795,0.04445 0.0444,0.04445 0.0444,0.10795 0,0.03175 -0.0127,0.05715 -0.0127,0.0254 -0.0572,0.06985 l -1.1303,1.2573 1.3335,1.49225 q 0.0635,0.06985 0.0635,0.12065 0,0.0635 -0.0444,0.10795 -0.0444,0.04445 -0.10795,0.04445 h -0.94615 q -0.1651,0 -0.26035,-0.10795 l -1.00965,-1.13665 v 1.07315 q 0,0.06985 -0.0508,0.12065 -0.0508,0.0508 -0.12065,0.0508 h -0.8001 q -0.0699,0 -0.12065,-0.0508 -0.0508,-0.0508 -0.0508,-0.12065 v -4.1656 q 0,-0.06985 0.0508,-0.12065 0.0508,-0.0508 0.12065,-0.0508 h 0.8001 q 0.0699,0 0.12065,0.0508 0.0508,0.0508 0.0508,0.12065 v 2.0574 z m 2.88925,1.905 q 0,0.2667 0.17145,0.381 0.17145,0.1143 0.40005,0.1143 0.1778,0 0.2921,-0.0381 0.1143,-0.0381 0.19685,-0.10795 0.0699,-0.05715 0.1016,-0.06985 0.0318,-0.01905 0.10795,-0.01905 h 0.8255 q 0.0635,0 0.1016,0.0381 0.0381,0.0381 0.0381,0.1016 0,0.127 -0.1905,0.36195 -0.1905,0.2286 -0.56515,0.41275 -0.37465,0.1778 -0.90805,0.1778 -0.81915,0 -1.27,-0.45085 -0.4445,-0.4572 -0.4445,-1.26365 0,-0.50165 0.19685,-0.889 0.2032,-0.38735 0.59055,-0.60325 0.38735,-0.22225 0.9271,-0.22225 0.59055,0 0.97155,0.254 0.38735,0.24765 0.56515,0.6477 0.1778,0.3937 0.1778,0.8255 v 0.1778 q 0,0.06985 -0.0508,0.12065 -0.0508,0.0508 -0.12065,0.0508 z m 1.143,-0.70485 q -0.0254,-0.2159 -0.1778,-0.36195 -0.14605,-0.1524 -0.3937,-0.1524 -0.24765,0 -0.40005,0.1524 -0.14605,0.14605 -0.17145,0.36195 z m 2.71145,0.70485 q 0,0.2667 0.17145,0.381 0.17145,0.1143 0.40005,0.1143 0.1778,0 0.2921,-0.0381 0.1143,-0.0381 0.19685,-0.10795 0.0699,-0.05715 0.1016,-0.06985 0.0318,-0.01905 0.10795,-0.01905 h 0.8255 q 0.0635,0 0.1016,0.0381 0.0381,0.0381 0.0381,0.1016 0,0.127 -0.1905,0.36195 -0.1905,0.2286 -0.56515,0.41275 -0.37465,0.1778 -0.90805,0.1778 -0.81915,0 -1.27,-0.45085 -0.4445,-0.4572 -0.4445,-1.26365 0,-0.50165 0.19685,-0.889 0.2032,-0.38735 0.59055,-0.60325 0.38735,-0.22225 0.9271,-0.22225 0.59055,0 0.97155,0.254 0.38735,0.24765 0.56515,0.6477 0.1778,0.3937 0.1778,0.8255 v 0.1778 q 0,0.06985 -0.0508,0.12065 -0.0508,0.0508 -0.12065,0.0508 z m 1.143,-0.70485 q -0.0254,-0.2159 -0.1778,-0.36195 -0.14605,-0.1524 -0.3937,-0.1524 -0.24765,0 -0.40005,0.1524 -0.14605,0.14605 -0.17145,0.36195 z m 2.86385,3.02895 q 0,0.06985 -0.0508,0.12065 -0.0508,0.0508 -0.12065,0.0508 h -0.8001 q -0.0699,0 -0.12065,-0.0508 -0.0508,-0.0508 -0.0508,-0.12065 v -4.1656 q 0,-0.06985 0.0508,-0.12065 0.0508,-0.0508 0.12065,-0.0508 h 0.76835 q 0.0699,0 0.12065,0.0508 0.0508,0.0508 0.0508,0.12065 v 0.14605 q 0.1016,-0.12065 0.1905,-0.19685 0.0952,-0.0762 0.26035,-0.127 0.17145,-0.05715 0.4318,-0.05715 0.60325,0 0.99695,0.3683 0.40005,0.3683 0.42545,1.08585 0.006,0.0635 0.006,0.254 0,0.19685 -0.006,0.26035 -0.0254,0.71755 -0.4191,1.0922 -0.3937,0.3683 -1.0033,0.3683 -0.3302,0 -0.5334,-0.1143 -0.2032,-0.1143 -0.3175,-0.2667 z m 1.13665,-2.86385 q -0.019,-0.24765 -0.15875,-0.40005 -0.13335,-0.1524 -0.41275,-0.1524 -0.26035,0 -0.40005,0.14605 -0.13335,0.14605 -0.1651,0.36195 -0.0127,0.127 -0.0127,0.22225 0,0.09525 0.0127,0.22225 0.0254,0.20955 0.1651,0.36195 0.1397,0.14605 0.40005,0.14605 0.2794,0 0.41275,-0.1524 0.1397,-0.1524 0.15875,-0.40005 0.0127,-0.127 0.0127,-0.1778 0,-0.0508 -0.0127,-0.1778 z"
       id="text1"
       aria-label="Timekeep" /><g
       fill="none"
       id="g2"
       transform="matrix(0.26458333,0,0,0.26458333,90.450677,91.254777)"
       style="fill:#d9ffd6;fill-opacity:0.996616"><path
         fill="#ffffff"
         d="M 12,2 C 17.523,2 22,6.477 22,12 22,17.523 17.523,22 12,22 6.477,22 2,17.523 2,12 2,6.477 6.477,2 12,2 m 0,4 a 1,1 0 0 0 -1,1 v 5 a 1,1 0 0 0 0.293,0.707 l 3,3 a 1,1 0 0 0 1.414,-1.414 L 13,11.586 V 7 A 1,1 0 0 0 12,6"
         id="path2"
         style="fill:#ffd097;fill-opacity:0.996616" /></g></g></svg>
